<svg width="35" height="34" viewBox="0 0 35 34" fill="none" xmlns="http://www.w3.org/2000/svg">
<g clip-path="url(#clip0)">
<path d="M15.1823 14.326C14.4259 14.8877 13.6273 15.393 12.7934 15.8376C12.5016 15.9833 12.1781 16.0577 11.8504 16.0545H8.49776C8.23446 16.0545 7.97376 16.0037 7.7306 15.905C7.48743 15.8063 7.26659 15.6616 7.08073 15.4793C6.89488 15.297 6.74767 15.0806 6.64754 14.8426C6.54742 14.6045 6.49635 14.3495 6.49727 14.0922C6.49727 12.4417 7.93609 11.269 9.65229 11.4249C11.7776 11.6147 13.5042 12.6653 15.1511 13.882C15.3487 14.0413 15.4111 14.1633 15.1823 14.326Z" fill="#F4546D"/>
<path d="M16.4235 4.37497V11.56C15.7818 11.1007 15.1139 10.6775 14.423 10.2924C13.8613 9.99081 13.2858 9.72306 12.7172 9.44176C12.6236 9.41804 12.53 9.40787 12.4433 9.37737C10.9629 8.84866 9.4443 8.56398 7.88065 8.9639C6.60245 9.29383 5.49049 10.0667 4.75188 11.1384C4.01327 12.2102 3.69835 13.508 3.86579 14.7899C3.93028 15.2198 4.04666 15.6407 4.21249 16.0438C3.07135 15.9789 1.99896 15.4893 1.21556 14.6756C0.432154 13.8619 -0.00280584 12.7858 1.36217e-05 11.6684V7.432C0.00460442 5.45744 0.810245 3.56529 2.24019 2.17066C3.67013 0.776022 5.6076 -0.00720725 7.62755 -0.00720215H11.9614C13.1473 -0.00361173 14.2833 0.459877 15.1199 1.2815C15.9565 2.10312 16.4253 3.21572 16.4235 4.37497Z" fill="#F4546D"/>
<path d="M28.4992 14.0785V14.1023C28.4776 14.6345 28.2431 15.1371 27.8464 15.5022C27.4496 15.8672 26.9222 16.0655 26.3774 16.0544H23.1565L22.2169 15.8443C21.4117 15.4295 20.6439 14.9488 19.9217 14.4073C19.6652 14.2209 19.5993 14.0684 19.8871 13.8515C21.5825 12.5975 23.3784 11.5536 25.5626 11.3943C25.9368 11.378 26.3105 11.4349 26.6618 11.5616C27.0132 11.6884 27.335 11.8825 27.6086 12.1326C27.8821 12.3826 28.1018 12.6835 28.2548 13.0177C28.4077 13.3519 28.4908 13.7125 28.4992 14.0785Z" fill="#257ECF"/>
<path d="M34.4279 7.4392V11.6689C34.4293 12.6787 34.0729 13.6579 33.4194 14.4401C32.7659 15.2222 31.8555 15.7591 30.843 15.9595C31.1414 15.1621 31.241 14.3067 31.1336 13.4642C31.0262 12.6216 30.7149 11.8162 30.2254 11.1148C29.736 10.4134 29.0825 9.83612 28.3193 9.43089C27.556 9.02566 26.7049 8.80412 25.8366 8.78468C24.6253 8.80828 23.4265 9.02935 22.2897 9.43879C20.7667 10.1178 19.3287 10.9662 18.0045 11.9671V4.37539C18.0054 3.21524 18.4772 2.10287 19.3164 1.28252C20.1557 0.462165 21.2936 0.000897604 22.4804 0H26.8177C28.8347 0.00447589 30.7677 0.789686 32.1939 2.18384C33.6201 3.57799 34.4234 5.46758 34.4279 7.4392Z" fill="#257ECF"/>
<path d="M16.4235 19.5724V29.062C16.4235 30.2227 15.952 31.336 15.1127 32.1571C14.2734 32.9781 13.1349 33.4399 11.9475 33.4408H7.61369C5.59074 33.4408 3.65064 32.6552 2.22019 31.2569C0.789754 29.8586 -0.0138536 27.9621 -0.0138536 25.9846V21.7482C-0.0143096 21.1735 0.101145 20.6043 0.325922 20.0733C0.5507 19.5422 0.88039 19.0597 1.29611 18.6533C1.71184 18.247 2.20544 17.9247 2.7487 17.705C3.29195 17.4852 3.87419 17.3724 4.46212 17.3728H4.97524C5.4877 18.0202 6.1443 18.545 6.89523 18.9074C7.64615 19.2697 8.47166 19.46 9.30907 19.4639C10.5417 19.4355 11.7575 19.1767 12.8906 18.7013C13.0223 18.6539 13.1818 18.5082 13.2997 18.6742C13.4175 18.8403 13.2407 18.9115 13.1679 19.0131C12.283 20.4834 11.1787 21.8165 9.89154 22.9683C9.68351 23.1378 9.66618 23.2564 9.8222 23.4699C10.1689 23.9647 10.5399 24.4866 10.8623 24.9916C11.0565 25.3034 11.2298 25.2899 11.4933 25.0899C12.1871 24.545 12.8204 23.9305 13.3829 23.2564C14.3483 22.0678 15.2387 20.8228 16.049 19.5283C16.1461 19.3555 16.2432 19.1894 16.3437 18.9996C16.3953 19.1864 16.422 19.3789 16.4235 19.5724Z" fill="#FD6D29"/>
<path d="M35 21.7618V26.5574C35 28.5349 34.1964 30.4314 32.7659 31.8297C31.3355 33.228 29.3954 34.0135 27.3725 34.0135H22.4804C21.8921 34.0135 21.3094 33.9002 20.7659 33.6798C20.2224 33.4595 19.7287 33.1366 19.313 32.7296C18.8973 32.3226 18.5677 31.8395 18.3432 31.3079C18.1186 30.7762 18.0035 30.2065 18.0045 29.6314V19.5724C18.0047 19.1616 18.125 18.7595 18.3512 18.4133C18.5786 18.7494 18.7583 19.1143 18.8851 19.4978C18.9807 19.5832 19.0678 19.6774 19.1451 19.7791C19.7065 20.703 20.3199 21.5958 20.9827 22.4531C21.6588 23.3693 22.4406 24.2062 23.3125 24.9476C23.6766 25.2424 23.9435 25.3712 24.2313 24.856C24.4933 24.4041 24.7851 23.9694 25.105 23.5546C25.32 23.2733 25.2784 23.0971 25.0079 22.8768C23.7922 21.7913 22.7488 20.5348 21.9118 19.1487C21.8321 19.0165 21.6241 18.881 21.787 18.7251C21.95 18.5692 22.0991 18.7251 22.262 18.7793C22.7821 18.942 23.3021 19.1182 23.8326 19.2538C26.0446 19.7655 28.0693 19.4775 29.6781 17.7693C29.789 17.6507 29.893 17.5321 29.9901 17.4304H30.5275C31.7065 17.4304 32.8378 17.8854 33.6754 18.6965C34.513 19.5077 34.989 20.6093 35 21.7618Z" fill="#5F2EEA"/>
</g>
<defs>
<clipPath id="clip0">
<rect width="35" height="34" fill="white"/>
</clipPath>
</defs>
</svg>
