<svg width="41" height="41" viewBox="0 0 41 41" fill="none" xmlns="http://www.w3.org/2000/svg">
<path fill-rule="evenodd" clip-rule="evenodd" d="M0 10C0 4.47716 4.47715 0 10 0H30.0029C35.5258 0 40.0029 4.47715 40.0029 10V30.0029C40.0029 35.5258 35.5258 40.0029 30.0029 40.0029H10C4.47716 40.0029 0 35.5258 0 30.0029V10Z" fill="#A2F4FF"/>
<path d="M21.2525 11C21.5099 11 21.7079 11.21 21.7079 11.46V14.68C21.7079 16.51 23.203 18.01 25.0149 18.02C25.7673 18.02 26.3614 18.03 26.8168 18.03L26.9855 18.0293C27.2899 18.0269 27.6997 18.02 28.0545 18.02C28.302 18.02 28.5 18.22 28.5 18.47V26.51C28.5 28.99 26.5099 31 24.0545 31H16.1733C13.599 31 11.5 28.89 11.5 26.29V15.51C11.5 13.03 13.5 11 15.9653 11H21.2525ZM22.3119 23.9H16.9257C16.5198 23.9 16.1832 24.23 16.1832 24.64C16.1832 25.05 16.5198 25.39 16.9257 25.39H22.3119C22.7178 25.39 23.0545 25.05 23.0545 24.64C23.0545 24.23 22.7178 23.9 22.3119 23.9ZM20.2723 18.9H16.9257C16.5198 18.9 16.1832 19.24 16.1832 19.65C16.1832 20.06 16.5198 20.39 16.9257 20.39H20.2723C20.6782 20.39 21.0149 20.06 21.0149 19.65C21.0149 19.24 20.6782 18.9 20.2723 18.9ZM23.1507 11.906C23.1507 11.475 23.6685 11.261 23.9646 11.572C25.0349 12.696 26.9051 14.661 27.9507 15.759C28.2398 16.062 28.0279 16.565 27.6111 16.566C26.7972 16.569 25.8378 16.566 25.1477 16.559C24.0527 16.559 23.1507 15.648 23.1507 14.542V11.906Z" fill="#018FA1"/>
</svg>
