<svg width="41" height="41" viewBox="0 0 41 41" fill="none" xmlns="http://www.w3.org/2000/svg">
<path fill-rule="evenodd" clip-rule="evenodd" d="M0 10C0 4.47716 4.47715 0 10 0H30.0029C35.5258 0 40.0029 4.47715 40.0029 10V30.0029C40.0029 35.5258 35.5258 40.0029 30.0029 40.0029H10C4.47716 40.0029 0 35.5258 0 30.0029V10Z" fill="#BFFFC2"/>
<path d="M20.0066 21.165C18.535 21.165 17.1933 21.0788 16.3187 20.949C16.3165 20.9469 16.2947 20.942 16.2579 20.9344L16.0073 20.8842C15.6873 20.8192 15.2066 20.7136 14.9914 20.6021C14.3789 20.2846 14 19.6639 14 18.9995L14 18.9417C14.0143 18.5086 14.3943 17.5988 14.4076 17.5988C15.0498 16.0683 17.0468 13.0509 18.3742 11.8378L18.4196 11.793C18.5196 11.6952 18.7629 11.4623 18.9282 11.3469C19.2344 11.1156 19.6134 11 19.9923 11C20.4153 11 20.8085 11.1298 21.1302 11.3753C21.1885 11.4331 21.4353 11.6491 21.6402 11.852C22.9234 13.0356 25.0218 16.1261 25.664 17.7428C25.7665 17.9883 25.9846 18.609 26 18.9417C26 19.2592 25.9262 19.5624 25.7808 19.8515C25.577 20.2126 25.2554 20.5006 24.8764 20.6599C24.6143 20.7613 23.8267 20.9206 23.8124 20.9206C22.9521 21.0788 21.5531 21.165 20.0066 21.165ZM19.9996 29C19.1613 29 18.4817 28.3269 18.4817 27.4967L18.8088 23.7975C18.8088 23.1463 19.342 22.6183 19.9996 22.6183C20.6583 22.6183 21.1903 23.1463 21.1903 23.7975L21.5175 27.4967C21.5175 28.3269 20.8378 29 19.9996 29Z" fill="#51B055"/>
</svg>
