<svg width="41" height="41" viewBox="0 0 41 41" fill="none" xmlns="http://www.w3.org/2000/svg">
<path fill-rule="evenodd" clip-rule="evenodd" d="M0 10C0 4.47716 4.47715 0 10 0H30.0029C35.5258 0 40.0029 4.47715 40.0029 10V30.0029C40.0029 35.5258 35.5258 40.0029 30.0029 40.0029H10C4.47716 40.0029 0 35.5258 0 30.0029V10Z" fill="#B0D4F7"/>
<path fill-rule="evenodd" clip-rule="evenodd" d="M19.5317 20.4724C23.5208 24.4604 24.4258 19.8467 26.9656 22.3848C29.4143 24.8328 30.8216 25.3232 27.7192 28.4247C27.3306 28.737 24.8616 32.4943 16.1846 23.8197C7.50652 15.144 11.2616 12.6724 11.574 12.2839C14.6839 9.17385 15.1659 10.5894 17.6145 13.0373C20.1544 15.5765 15.5427 16.4844 19.5317 20.4724Z" fill="#6D5DE5"/>
</svg>
