<svg width="67" height="67" viewBox="0 0 67 67" fill="none" xmlns="http://www.w3.org/2000/svg">
<rect x="1" y="1" width="65" height="65" rx="20" fill="#252550" stroke="#5D559C" stroke-width="0.5"/>
<path d="M33.9934 31.835C35.465 31.835 36.8067 31.9212 37.6813 32.051C37.6835 32.0531 37.7053 32.058 37.7421 32.0656L37.9927 32.1158C38.3127 32.1808 38.7934 32.2864 39.0086 32.3979C39.6211 32.7154 40 33.3361 40 34.0005V34.0583C39.9857 34.4914 39.6057 35.4012 39.5924 35.4012C38.9502 36.9317 36.9532 39.9491 35.6258 41.1622L35.5804 41.207C35.4804 41.3048 35.2371 41.5377 35.0718 41.6531C34.7656 41.8844 34.3866 42 34.0077 42C33.5847 42 33.1915 41.8702 32.8698 41.6247C32.8115 41.5669 32.5647 41.3509 32.3598 41.148C31.0766 39.9644 28.9782 36.8739 28.336 35.2572C28.2335 35.0117 28.0154 34.391 28 34.0583C28 33.7408 28.0738 33.4376 28.2192 33.1485C28.423 32.7874 28.7446 32.4994 29.1236 32.3401C29.3857 32.2387 30.1733 32.0794 30.1876 32.0794C31.0479 31.9212 32.4469 31.835 33.9934 31.835ZM34.0004 24C34.8387 24 35.5183 24.6731 35.5183 25.5033L35.1912 29.2025C35.1912 29.8537 34.6581 30.3817 34.0004 30.3817C33.3417 30.3817 32.8097 29.8537 32.8097 29.2025L32.4825 25.5033C32.4825 24.6731 33.1622 24 34.0004 24Z" fill="#F975DA"/>
</svg>
