<svg width="67" height="67" viewBox="0 0 67 67" fill="none" xmlns="http://www.w3.org/2000/svg">
<rect x="1" y="1" width="65" height="65" rx="20" fill="#252550" stroke="#5D559C" stroke-width="0.5"/>
<path d="M33.0066 34.165C31.535 34.165 30.1933 34.0788 29.3187 33.949C29.3165 33.9469 29.2947 33.942 29.2579 33.9344L29.0073 33.8842C28.6873 33.8192 28.2066 33.7136 27.9914 33.6021C27.3789 33.2846 27 32.6639 27 31.9995L27 31.9417C27.0143 31.5086 27.3943 30.5988 27.4076 30.5988C28.0498 29.0683 30.0468 26.0509 31.3742 24.8378L31.4196 24.793C31.5196 24.6952 31.7629 24.4623 31.9282 24.3469C32.2344 24.1156 32.6134 24 32.9923 24C33.4153 24 33.8085 24.1298 34.1302 24.3753C34.1885 24.4331 34.4353 24.6491 34.6402 24.852C35.9234 26.0356 38.0218 29.1261 38.664 30.7428C38.7665 30.9883 38.9846 31.609 39 31.9417C39 32.2592 38.9262 32.5624 38.7808 32.8515C38.577 33.2126 38.2554 33.5006 37.8764 33.6599C37.6143 33.7613 36.8267 33.9206 36.8124 33.9206C35.9521 34.0788 34.5531 34.165 33.0066 34.165ZM32.9996 42C32.1613 42 31.4817 41.3269 31.4817 40.4967L31.8088 36.7975C31.8088 36.1463 32.342 35.6183 32.9996 35.6183C33.6583 35.6183 34.1903 36.1463 34.1903 36.7975L34.5175 40.4967C34.5175 41.3269 33.8378 42 32.9996 42Z" fill="#51B055"/>
</svg>
