<svg width="206" height="208" viewBox="0 0 206 208" fill="none" xmlns="http://www.w3.org/2000/svg">
    <path opacity="0.1" fill-rule="evenodd" clip-rule="evenodd"
        d="M207.557 149.545V56.6543C207.581 41.667 201.655 27.283 191.083 16.6608C180.51 6.03856 166.153 0.0464181 151.166 3.21941e-10H96.3958C70.868 -6.59285e-05 46.3825 10.1258 28.3111 28.1561C10.2397 46.1865 0.0581899 70.6489 0.000172149 96.1766V150.947C-0.0354597 165.393 5.4615 179.304 15.362 189.824C25.2626 200.344 38.8152 206.674 53.2368 207.513C51.1411 202.301 49.6703 196.86 48.8552 191.302C46.7392 174.729 50.7191 157.952 60.0535 144.095C69.388 130.238 83.4407 120.247 99.5944 115.982C119.356 110.811 138.547 114.492 157.257 121.327C157.931 121.57 158.638 121.713 159.359 121.859C159.808 121.95 160.263 122.042 160.718 122.16C162.831 123.229 164.951 124.283 167.072 125.338C172.166 127.87 177.264 130.404 182.276 133.157C191.007 138.136 199.448 143.607 207.557 149.545ZM161.682 204.841C172.221 199.092 182.312 192.56 191.871 185.299C194.763 183.196 193.975 181.618 191.477 179.559C170.664 163.829 148.844 150.246 121.985 147.792C100.296 145.777 82.1119 160.937 82.1119 182.275C82.1004 185.603 82.7457 188.9 84.0111 191.977C85.2765 195.055 87.1369 197.852 89.4857 200.209C91.8345 202.566 94.6255 204.436 97.6986 205.712C100.772 206.988 104.066 207.645 107.394 207.645H149.764C153.905 207.687 157.994 206.724 161.682 204.841Z"
        fill="#F4546D" />
</svg>
