<svg width="67" height="67" viewBox="0 0 67 67" fill="none" xmlns="http://www.w3.org/2000/svg">
<rect x="1" y="1" width="65" height="65" rx="20" fill="#252550" stroke="#5D559C" stroke-width="0.5"/>
<path d="M35.2525 23C35.5099 23 35.7079 23.21 35.7079 23.46V26.68C35.7079 28.51 37.203 30.01 39.0149 30.02C39.7673 30.02 40.3614 30.03 40.8168 30.03L40.9855 30.0293C41.2899 30.0269 41.6997 30.02 42.0545 30.02C42.302 30.02 42.5 30.22 42.5 30.47V38.51C42.5 40.99 40.5099 43 38.0545 43H30.1733C27.599 43 25.5 40.89 25.5 38.29V27.51C25.5 25.03 27.5 23 29.9653 23H35.2525ZM36.3119 35.9H30.9257C30.5198 35.9 30.1832 36.23 30.1832 36.64C30.1832 37.05 30.5198 37.39 30.9257 37.39H36.3119C36.7178 37.39 37.0545 37.05 37.0545 36.64C37.0545 36.23 36.7178 35.9 36.3119 35.9ZM34.2723 30.9H30.9257C30.5198 30.9 30.1832 31.24 30.1832 31.65C30.1832 32.06 30.5198 32.39 30.9257 32.39H34.2723C34.6782 32.39 35.0149 32.06 35.0149 31.65C35.0149 31.24 34.6782 30.9 34.2723 30.9ZM37.1507 23.906C37.1507 23.475 37.6685 23.261 37.9646 23.572C39.0349 24.696 40.9051 26.661 41.9507 27.759C42.2398 28.062 42.0279 28.565 41.6111 28.566C40.7972 28.569 39.8378 28.566 39.1477 28.559C38.0527 28.559 37.1507 27.648 37.1507 26.542V23.906Z" fill="#57E8F1"/>
</svg>
