<svg width="323" height="194" viewBox="0 0 323 194" fill="none" xmlns="http://www.w3.org/2000/svg">
<rect width="323" height="194" rx="15" fill="#6857E8"/>
<rect width="323" height="194" rx="15" fill="#6857E8"/>
<path d="M343 73C343 90.6731 328.673 105 311 105C293.327 105 279 90.6731 279 73C279 55.3269 293.327 41 311 41C328.673 41 343 55.3269 343 73ZM297.037 73C297.037 80.7116 303.288 86.963 311 86.963C318.712 86.963 324.963 80.7116 324.963 73C324.963 65.2884 318.712 59.037 311 59.037C303.288 59.037 297.037 65.2884 297.037 73Z" fill="#7667ED"/>
<path opacity="0.9" d="M31.48 117.4V124.792H45.016L34.456 151H42.616L53.56 123.832V117.4H31.48ZM79.5319 138.52H76.1719V131.32H68.3959V138.52H61.3879L72.0919 117.4H63.8359L53.1319 138.52V145.624H68.3959V151H76.1719V145.624H79.5319V138.52ZM92.2756 143.56H84.5956L82.6756 157.72H88.4356L92.2756 143.56ZM116.682 133.48C118.65 131.944 119.898 129.736 119.898 126.712C119.898 120.184 114.906 116.728 108.714 116.728C102.522 116.728 97.5295 120.184 97.5295 126.712C97.5295 129.736 98.7775 131.944 100.746 133.48C97.9135 135.304 96.3775 138.232 96.3775 141.544C96.3775 147.688 100.794 151.672 108.714 151.672C116.634 151.672 121.05 147.688 121.05 141.544C121.05 138.232 119.514 135.304 116.682 133.48ZM108.714 123.928C110.874 123.928 112.218 125.32 112.218 127.192C112.218 129.064 110.874 130.456 108.714 130.456C106.554 130.456 105.21 129.064 105.21 127.192C105.21 125.32 106.554 123.928 108.714 123.928ZM108.714 144.472C106.026 144.472 104.058 142.984 104.058 140.44C104.058 137.896 106.026 136.408 108.714 136.408C111.402 136.408 113.37 137.896 113.37 140.44C113.37 142.984 111.402 144.472 108.714 144.472ZM139.871 131.032L145.679 123.64V117.4H124.079V124.6H136.367L130.271 132.328L133.199 136.696H134.783C137.951 136.696 139.343 138.376 139.343 140.44C139.343 142.504 137.951 144.184 134.783 144.184C131.855 144.184 130.415 142.84 129.647 140.632L123.023 144.472C125.087 149.416 129.695 151.672 134.783 151.672C141.263 151.672 147.023 147.832 147.023 140.44C147.023 135.784 143.999 132.472 139.871 131.032ZM162.399 129.208H159.663L159.999 124.6H172.239V117.4H152.799L151.407 136.696H161.919C164.847 136.696 166.239 138.376 166.239 140.44C166.239 142.504 164.847 144.184 161.679 144.184C158.511 144.184 157.071 142.84 156.303 140.632L149.679 144.472C151.743 149.416 156.351 151.672 161.679 151.672C168.159 151.672 173.919 147.832 173.919 140.44C173.919 133.048 168.639 129.208 162.399 129.208Z" fill="white"/>
</svg>
