<svg width="67" height="67" viewBox="0 0 67 67" fill="none" xmlns="http://www.w3.org/2000/svg">
<rect x="1" y="1" width="65" height="65" rx="20" fill="#252550" stroke="#5D559C" stroke-width="0.5"/>
<path d="M34.0049 23C36.6849 23 38.8882 25.1059 39 27.7743H38.9739C38.977 27.8519 38.9621 27.9291 38.9303 28H39.0865C40.3035 28 41.5778 28.8435 42.0888 30.8798L42.1444 31.1201L42.9133 37.3147C43.4666 41.2657 41.305 42.9273 38.3562 42.9977L38.1585 43H29.8685C26.8718 43 24.5625 41.908 25.0703 37.5836L25.1049 37.3147L25.8826 31.1201C26.2661 28.9272 27.5536 28.0622 28.7941 28.0033L28.9317 28H29.0099C28.9967 27.9253 28.9967 27.849 29.0099 27.7743C29.1217 25.1059 31.325 23 34.0049 23ZM31.097 31.3293C30.6089 31.3293 30.2132 31.7366 30.2132 32.2389C30.2132 32.7413 30.6089 33.1486 31.097 33.1486C31.5851 33.1486 31.9808 32.7413 31.9808 32.2389L31.9739 32.1248C31.9194 31.6763 31.5476 31.3293 31.097 31.3293ZM36.8858 31.3293C36.3977 31.3293 36.002 31.7366 36.002 32.2389C36.002 32.7413 36.3977 33.1486 36.8858 33.1486C37.3739 33.1486 37.7696 32.7413 37.7696 32.2389C37.7696 31.7366 37.3739 31.3293 36.8858 31.3293ZM33.9657 24.3024C32.0416 24.3024 30.4818 25.8568 30.4818 27.7743C30.495 27.849 30.495 27.9253 30.4818 28H37.4932C37.4654 27.9279 37.4506 27.8515 37.4497 27.7743C37.4497 25.8568 35.8899 24.3024 33.9657 24.3024Z" fill="#608EE9"/>
</svg>
